# xmcd
#
# Track frame offsets: 
#        182
#        16635
#        36597
#        57372
#        74445
#        91755
#        109462
#        130860
#        150567
#        169015
#        184905
#        202147
#
# Disc length: 2837 seconds
#
# Revision: 2
# Processed by: cddbd v1.5PL3 Copyright (c) Steve Scherf et al.
# Submitted via: ExactAudioCopy v0.95a4
#
DISCID=a60b130c
DTITLE=Marshall Tucker Band - Southern Spirit
DYEAR=1990
DGENRE=Country
TTITLE0=Stay In The Country
TTITLE1=Destruction (Confessions Of A Junkie)
TTITLE2=Ballad Of M.T.B.
TTITLE3=Chase The Memory
TTITLE4=Country Road
TTITLE5=Why Can't You Love Me
TTITLE6=Speical Lady
TTITLE7=No Mercy
TTITLE8=Love Will
TTITLE9=And The Hills
TTITLE10=Modern Day Man
TTITLE11=Closer Today
EXTD=
EXTT0=
EXTT1=
EXTT2=
EXTT3=
EXTT4=
EXTT5=
EXTT6=
EXTT7=
EXTT8=
EXTT9=
EXTT10=
EXTT11=
PLAYORDER=
